<svg xmlns="http://www.w3.org/2000/svg" xmlns:xlink="http://www.w3.org/1999/xlink" width="511.936" height="412" viewBox="0 0 511.936 412">
  <defs>
    <filter id="사각형_17" x="0" y="0" width="511.936" height="412" filterUnits="userSpaceOnUse">
      <feOffset dx="-1" dy="1" input="SourceAlpha"/>
      <feGaussianBlur stdDeviation="2" result="blur"/>
      <feFlood flood-opacity="0.239"/>
      <feComposite operator="in" in2="blur"/>
      <feComposite in="SourceGraphic"/>
    </filter>
    <filter id="사각형_55" x="132" y="232" width="250" height="55" filterUnits="userSpaceOnUse">
      <feOffset input="SourceAlpha"/>
      <feGaussianBlur stdDeviation="2" result="blur-2"/>
      <feFlood flood-color="#6772e5" flood-opacity="0.4"/>
      <feComposite operator="in" in2="blur-2"/>
      <feComposite in="SourceGraphic"/>
    </filter>
    <filter id="사각형_55-2" x="132" y="287" width="250" height="55" filterUnits="userSpaceOnUse">
      <feOffset input="SourceAlpha"/>
      <feGaussianBlur stdDeviation="2" result="blur-3"/>
      <feFlood flood-color="#6772e5" flood-opacity="0.4"/>
      <feComposite operator="in" in2="blur-3"/>
      <feComposite in="SourceGraphic"/>
    </filter>
    <filter id="사각형_55-3" x="132" y="342" width="250" height="55" filterUnits="userSpaceOnUse">
      <feOffset input="SourceAlpha"/>
      <feGaussianBlur stdDeviation="2" result="blur-4"/>
      <feFlood flood-color="#6772e5" flood-opacity="0.4"/>
      <feComposite operator="in" in2="blur-4"/>
      <feComposite in="SourceGraphic"/>
    </filter>
  </defs>
  <g id="그룹_204" data-name="그룹 204" transform="translate(-1654 -8)">
    <g id="그룹_38" data-name="그룹 38" transform="translate(1661 13)">
      <g id="그룹_10" data-name="그룹 10">
        <g id="그룹_33" data-name="그룹 33">
          <g id="그룹_36" data-name="그룹 36">
            <g transform="matrix(1, 0, 0, 1, -7, -5)" filter="url(#사각형_17)">
              <rect id="사각형_17-2" data-name="사각형 17" width="499.936" height="400" rx="8" transform="translate(7 5)" fill="#fff"/>
            </g>
            <g id="그룹_37" data-name="그룹 37" transform="translate(16 10)">
              <circle id="타원_1" data-name="타원 1" cx="5" cy="5" r="5" fill="#ff554f"/>
              <path id="패스_2" data-name="패스 2" d="M5,0A5,5,0,1,1,0,5,5,5,0,0,1,5,0Z" transform="translate(30)" fill="#29cf42"/>
              <circle id="타원_3" data-name="타원 3" cx="5" cy="5" r="5" transform="translate(15)" fill="#ffc02f"/>
            </g>
          </g>
        </g>
      </g>
      <rect id="사각형_36" data-name="사각형 36" width="500" height="1" transform="translate(0 30)" fill="#ccc"/>
    </g>
    <g id="그룹_199" data-name="그룹 199" transform="translate(8 1)">
      <g id="그룹_48" data-name="그룹 48" transform="translate(1822 63)">
        <path id="패스_9" data-name="패스 9" d="M10.865-74.736h1.507a3.029,3.029,0,0,0,2.187-.7,2.511,2.511,0,0,0,.722-1.89,2.38,2.38,0,0,0-.722-1.836,3.02,3.02,0,0,0-2.123-.669H10.865ZM8.19-82.018h4.48A5.554,5.554,0,0,1,16.544-80.7,4.348,4.348,0,0,1,18-77.326a4.339,4.339,0,0,1-1.5,3.471,5.582,5.582,0,0,1-3.768,1.284H10.865v4.862H8.19Zm17.621,9.681H24.5a2.442,2.442,0,0,0-1.529.414,1.278,1.278,0,0,0-.531,1.051q0,1.359,1.571,1.359a1.75,1.75,0,0,0,1.327-.5,1.809,1.809,0,0,0,.478-1.306Zm-5.223-3.227v-2.357a6.7,6.7,0,0,1,3.482-.743q4.373,0,4.373,4.076v6.879H25.917V-69a2.89,2.89,0,0,1-2.8,1.38,3.307,3.307,0,0,1-2.431-.892,3.032,3.032,0,0,1-.9-2.25,2.846,2.846,0,0,1,1.146-2.4,5.4,5.4,0,0,1,3.312-.87h1.571v-.658a1.841,1.841,0,0,0-.467-1.359,2.207,2.207,0,0,0-1.592-.467A5.615,5.615,0,0,0,20.589-75.564Zm13.906,7.643L30.248-78.473h2.824l1.253,3.439q.573,1.529.924,2.569t.435,1.316l.064.3q.212-.743,1.359-4.182l1.125-3.439h2.675L37.021-68.006Q35.408-63.7,32.1-63.7a4.635,4.635,0,0,1-1.062-.106v-2.1a2.967,2.967,0,0,0,.722.085A2.821,2.821,0,0,0,34.495-67.921Zm13.63-1.826a2.3,2.3,0,0,0,1.868-.881,3.8,3.8,0,0,0,.722-2.473,3.8,3.8,0,0,0-.722-2.473,2.261,2.261,0,0,0-1.826-.881,2.579,2.579,0,0,0-1.911.828,3.4,3.4,0,0,0-.807,2.463,3.7,3.7,0,0,0,.786,2.526A2.433,2.433,0,0,0,48.125-69.747ZM45.45-78.473v1.656a3.673,3.673,0,0,1,3.291-1.8,4.108,4.108,0,0,1,3.344,1.507,6.044,6.044,0,0,1,1.242,3.97,6.283,6.283,0,0,1-1.242,4,4.052,4.052,0,0,1-3.365,1.582,3.613,3.613,0,0,1-3.269-1.762v5.669H42.9V-78.473ZM56.044-67.709v-15.01h2.548v15.01Zm12.314-6.263v-.318a2.706,2.706,0,0,0-.563-1.667,1.86,1.86,0,0,0-1.518-.626,2.162,2.162,0,0,0-1.582.669,3.373,3.373,0,0,0-.86,1.943ZM70.1-70.511V-68.3a6.187,6.187,0,0,1-3.248.7,5.394,5.394,0,0,1-4.055-1.529,5.427,5.427,0,0,1-1.486-3.949,5.6,5.6,0,0,1,1.4-4.034,4.647,4.647,0,0,1,3.5-1.465,4.42,4.42,0,0,1,3.333,1.274,5.139,5.139,0,0,1,1.231,3.715,10.131,10.131,0,0,1-.149,1.529H63.878a2.9,2.9,0,0,0,1.157,1.783,3.744,3.744,0,0,0,2.2.616A4.742,4.742,0,0,0,70.1-70.511Z" transform="translate(23.436 83.42)" fill="#444"/>
        <g id="그룹_7" data-name="그룹 7">
          <g id="패스_7" data-name="패스 7" transform="translate(-1.375 114.58)" fill="#6c5da9" opacity="0.999">
            <path d="M 16.78681945800781 -92.78861999511719 L 15.78681945800781 -92.78861999511719 L 11.89999961853027 -92.78861999511719 L 10.89999961853027 -92.78861999511719 L 10.89999961853027 -93.78861999511719 L 10.89999961853027 -114.5800018310547 L 10.89999961853027 -115.5800018310547 L 11.89999961853027 -115.5800018310547 L 18.40888023376465 -115.5800018310547 C 20.99803924560547 -115.5800018310547 23.11792945861816 -114.8495178222656 24.70963859558105 -113.4088516235352 C 26.33004951477051 -111.9421997070312 27.15165901184082 -110.0425491333008 27.15165901184082 -107.7626495361328 C 27.15165901184082 -105.3493804931641 26.30261993408203 -103.3971405029297 24.62812995910645 -101.9601593017578 C 22.99861907958984 -100.5617828369141 20.93729019165039 -99.85273742675781 18.50141906738281 -99.85273742675781 L 16.78681945800781 -99.85273742675781 L 16.78681945800781 -93.78861999511719 L 16.78681945800781 -92.78861999511719 Z M 16.78681945800781 -104.9992218017578 L 17.97700881958008 -104.9992218017578 C 19.12029838562012 -104.9992218017578 19.95497894287109 -105.2467041015625 20.45785903930664 -105.7347793579102 C 20.95936012268066 -106.2215423583984 21.20314979553223 -106.8848571777344 21.20314979553223 -107.7626495361328 C 21.20314979553223 -108.6104202270508 20.96486854553223 -109.243293762207 20.47470855712891 -109.6974182128906 C 19.96957969665527 -110.165397644043 19.16035842895508 -110.4026947021484 18.06954956054688 -110.4026947021484 L 16.78681945800781 -110.4026947021484 L 16.78681945800781 -104.9992218017578 Z" stroke="none"/>
            <path d="M 15.78681945800781 -93.78861999511719 L 15.78681945800781 -100.8527374267578 L 18.50141906738281 -100.8527374267578 C 20.70188903808594 -100.8527374267578 22.52705001831055 -101.4748382568359 23.97690010070801 -102.7190399169922 C 25.42673873901367 -103.9632339477539 26.15165901184082 -105.6444320678711 26.15165901184082 -107.7626495361328 C 26.15165901184082 -109.7574691772461 25.44730949401855 -111.3923873901367 24.03858947753906 -112.6674423217773 C 22.62987899780273 -113.9424743652344 20.75330924987793 -114.5800018310547 18.40888023376465 -114.5800018310547 L 11.89999961853027 -114.5800018310547 L 11.89999961853027 -93.78861999511719 L 15.78681945800781 -93.78861999511719 M 15.78681945800781 -111.4026947021484 L 18.06954956054688 -111.4026947021484 C 19.42684936523438 -111.4026947021484 20.45510864257812 -111.0787811279297 21.15432929992676 -110.4309844970703 C 21.85353851318359 -109.7831802368164 22.20314979553223 -108.8937377929688 22.20314979553223 -107.7626495361328 C 22.20314979553223 -106.6110000610352 21.85353851318359 -105.6958541870117 21.15432929992676 -105.017204284668 C 20.45510864257812 -104.3385543823242 19.39599990844727 -103.9992218017578 17.97700881958008 -103.9992218017578 L 15.78681945800781 -103.9992218017578 L 15.78681945800781 -111.4026947021484 M 17.78681945800781 -91.78861999511719 L 15.78681945800781 -91.78861999511719 L 11.89999961853027 -91.78861999511719 L 9.899999618530273 -91.78861999511719 L 9.899999618530273 -93.78861999511719 L 9.899999618530273 -114.5800018310547 L 9.899999618530273 -116.5800018310547 L 11.89999961853027 -116.5800018310547 L 18.40888023376465 -116.5800018310547 C 21.25373840332031 -116.5800018310547 23.59939956665039 -115.7625198364258 25.38069915771484 -114.150260925293 C 27.21937942504883 -112.4860534667969 28.15165901184082 -110.3369522094727 28.15165901184082 -107.7626495361328 C 28.15165901184082 -105.0444183349609 27.18527984619141 -102.8368606567383 25.27936935424805 -101.2012939453125 C 23.46340942382812 -99.64291381835938 21.18297958374023 -98.85273742675781 18.50141906738281 -98.85273742675781 L 17.78681945800781 -98.85273742675781 L 17.78681945800781 -93.78861999511719 L 17.78681945800781 -91.78861999511719 Z M 17.78681945800781 -105.9992218017578 L 17.97700881958008 -105.9992218017578 C 18.82660865783691 -105.9992218017578 19.4603099822998 -106.1601486206055 19.76137924194336 -106.4523696899414 C 19.95101928710938 -106.6364288330078 20.20314979553223 -106.9725189208984 20.20314979553223 -107.7626495361328 C 20.20314979553223 -108.4922332763672 19.98506927490234 -108.787841796875 19.79508018493652 -108.9638595581055 C 19.40359878540039 -109.3265609741211 18.64064979553223 -109.4026947021484 18.06954956054688 -109.4026947021484 L 17.78681945800781 -109.4026947021484 L 17.78681945800781 -105.9992218017578 Z" stroke="none" fill="#fff"/>
          </g>
          <g id="패스_6" data-name="패스 6" transform="translate(-11.9 114.58)" fill="#6c5da9" opacity="0.999">
            <path d="M 16.78681945800781 -92.78861999511719 L 15.78681945800781 -92.78861999511719 L 11.89999961853027 -92.78861999511719 L 10.89999961853027 -92.78861999511719 L 10.89999961853027 -93.78861999511719 L 10.89999961853027 -114.5800018310547 L 10.89999961853027 -115.5800018310547 L 11.89999961853027 -115.5800018310547 L 18.40888023376465 -115.5800018310547 C 20.99803924560547 -115.5800018310547 23.11792945861816 -114.8495178222656 24.70963859558105 -113.4088516235352 C 26.33004951477051 -111.9421997070312 27.15165901184082 -110.0425491333008 27.15165901184082 -107.7626495361328 C 27.15165901184082 -105.3493804931641 26.30261993408203 -103.3971405029297 24.62812995910645 -101.9601593017578 C 22.99861907958984 -100.5617828369141 20.93729019165039 -99.85273742675781 18.50141906738281 -99.85273742675781 L 16.78681945800781 -99.85273742675781 L 16.78681945800781 -93.78861999511719 L 16.78681945800781 -92.78861999511719 Z M 16.78681945800781 -104.9992218017578 L 17.97700881958008 -104.9992218017578 C 19.12029838562012 -104.9992218017578 19.95497894287109 -105.2467041015625 20.45785903930664 -105.7347793579102 C 20.95936012268066 -106.2215423583984 21.20314979553223 -106.8848571777344 21.20314979553223 -107.7626495361328 C 21.20314979553223 -108.6104202270508 20.96486854553223 -109.243293762207 20.47470855712891 -109.6974182128906 C 19.96957969665527 -110.165397644043 19.16035842895508 -110.4026947021484 18.06954956054688 -110.4026947021484 L 16.78681945800781 -110.4026947021484 L 16.78681945800781 -104.9992218017578 Z" stroke="none"/>
            <path d="M 15.78681945800781 -93.78861999511719 L 15.78681945800781 -100.8527374267578 L 18.50141906738281 -100.8527374267578 C 20.70188903808594 -100.8527374267578 22.52705001831055 -101.4748382568359 23.97690010070801 -102.7190399169922 C 25.42673873901367 -103.9632339477539 26.15165901184082 -105.6444320678711 26.15165901184082 -107.7626495361328 C 26.15165901184082 -109.7574691772461 25.44730949401855 -111.3923873901367 24.03858947753906 -112.6674423217773 C 22.62987899780273 -113.9424743652344 20.75330924987793 -114.5800018310547 18.40888023376465 -114.5800018310547 L 11.89999961853027 -114.5800018310547 L 11.89999961853027 -93.78861999511719 L 15.78681945800781 -93.78861999511719 M 15.78681945800781 -111.4026947021484 L 18.06954956054688 -111.4026947021484 C 19.42684936523438 -111.4026947021484 20.45510864257812 -111.0787811279297 21.15432929992676 -110.4309844970703 C 21.85353851318359 -109.7831802368164 22.20314979553223 -108.8937377929688 22.20314979553223 -107.7626495361328 C 22.20314979553223 -106.6110000610352 21.85353851318359 -105.6958541870117 21.15432929992676 -105.017204284668 C 20.45510864257812 -104.3385543823242 19.39599990844727 -103.9992218017578 17.97700881958008 -103.9992218017578 L 15.78681945800781 -103.9992218017578 L 15.78681945800781 -111.4026947021484 M 17.78681945800781 -91.78861999511719 L 15.78681945800781 -91.78861999511719 L 11.89999961853027 -91.78861999511719 L 9.899999618530273 -91.78861999511719 L 9.899999618530273 -93.78861999511719 L 9.899999618530273 -114.5800018310547 L 9.899999618530273 -116.5800018310547 L 11.89999961853027 -116.5800018310547 L 18.40888023376465 -116.5800018310547 C 21.25373840332031 -116.5800018310547 23.59939956665039 -115.7625198364258 25.38069915771484 -114.150260925293 C 27.21937942504883 -112.4860534667969 28.15165901184082 -110.3369522094727 28.15165901184082 -107.7626495361328 C 28.15165901184082 -105.0444183349609 27.18527984619141 -102.8368606567383 25.27936935424805 -101.2012939453125 C 23.46340942382812 -99.64291381835938 21.18297958374023 -98.85273742675781 18.50141906738281 -98.85273742675781 L 17.78681945800781 -98.85273742675781 L 17.78681945800781 -93.78861999511719 L 17.78681945800781 -91.78861999511719 Z M 17.78681945800781 -105.9992218017578 L 17.97700881958008 -105.9992218017578 C 18.82660865783691 -105.9992218017578 19.4603099822998 -106.1601486206055 19.76137924194336 -106.4523696899414 C 19.95101928710938 -106.6364288330078 20.20314979553223 -106.9725189208984 20.20314979553223 -107.7626495361328 C 20.20314979553223 -108.4922332763672 19.98506927490234 -108.787841796875 19.79508018493652 -108.9638595581055 C 19.40359878540039 -109.3265609741211 18.64064979553223 -109.4026947021484 18.06954956054688 -109.4026947021484 L 17.78681945800781 -109.4026947021484 L 17.78681945800781 -105.9992218017578 Z" stroke="none" fill="#fff"/>
          </g>
        </g>
      </g>
      <text id="링크_결제" data-name="링크 결제" transform="translate(1924 79)" fill="#444" font-size="14" font-family="NotoSansKR-Regular, Noto Sans KR" letter-spacing="0.11em"><tspan x="0" y="0">링크 결제</tspan></text>
    </g>
    <g id="그룹_200" data-name="그룹 200" transform="translate(-80 -63)">
      <g transform="matrix(1, 0, 0, 1, 1734, 71)" filter="url(#사각형_55)">
        <rect id="사각형_55-4" data-name="사각형 55" width="238" height="43" rx="4" transform="translate(138 238)" fill="#7852e8"/>
      </g>
      <text id="간편하게_계좌로_결제하기" data-name="간편하게 계좌로 결제하기" transform="translate(1896 338)" fill="#fff" font-size="18" font-family="NotoSansKR-Medium, Noto Sans KR" font-weight="500"><tspan x="0" y="0">간편하게 계좌로 결제하기</tspan></text>
    </g>
    <g id="그룹_201" data-name="그룹 201" transform="translate(-80 -8)">
      <g transform="matrix(1, 0, 0, 1, 1734, 16)" filter="url(#사각형_55-2)">
        <rect id="사각형_55-5" data-name="사각형 55" width="238" height="43" rx="4" transform="translate(138 293)" fill="#7852e8"/>
      </g>
      <text id="간편하게_카드로_결제하기" data-name="간편하게 카드로 결제하기" transform="translate(1896 338)" fill="#fff" font-size="18" font-family="NotoSansKR-Medium, Noto Sans KR" font-weight="500"><tspan x="0" y="0">간편하게 카드로 결제하기</tspan></text>
    </g>
    <g id="그룹_202" data-name="그룹 202" transform="translate(-80 47)">
      <g transform="matrix(1, 0, 0, 1, 1734, -39)" filter="url(#사각형_55-3)">
        <rect id="사각형_55-6" data-name="사각형 55" width="238" height="43" rx="4" transform="translate(138 348)" fill="#7852e8"/>
      </g>
      <text id="신용_카드로_결제하기" data-name="신용 카드로 결제하기" transform="translate(1913 338)" fill="#fff" font-size="18" font-family="NotoSansKR-Medium, Noto Sans KR" font-weight="500"><tspan x="0" y="0">신용 카드로 결제하기</tspan></text>
    </g>
    <text id="결제금액" transform="translate(1889 116)" fill="#888" font-size="12" font-family="NotoSansKR-Regular, Noto Sans KR" letter-spacing="0.02em"><tspan x="0" y="0">결제금액</tspan></text>
    <g id="그룹_203" data-name="그룹 203" transform="translate(6 -19)">
      <text id="_1_004" data-name="1,004" transform="translate(1860 175)" fill="#7852e8" font-size="28" font-family="NotoSansKR-Regular, Noto Sans KR" letter-spacing="0.02em"><tspan x="0" y="0">1,004</tspan></text>
      <text id="원" transform="translate(1936 174)" fill="#333" font-size="16" font-family="NotoSansKR-Regular, Noto Sans KR" letter-spacing="0.11em"><tspan x="0" y="0">원</tspan></text>
    </g>
    <text id="데모상품" transform="translate(1881 188)" fill="#555" font-size="16" font-family="NotoSansKR-Regular, Noto Sans KR" letter-spacing="0.02em"><tspan x="0" y="0">데모상품</tspan></text>
    <text id="_주_테스트" data-name="(주)테스트" transform="translate(1885 214)" fill="#888" font-size="12" font-family="NotoSansKR-Regular, Noto Sans KR" letter-spacing="0.02em"><tspan x="0" y="0">(주)테스트</tspan></text>
    <line id="선_2" data-name="선 2" x2="238" transform="translate(1792.5 231.5)" fill="none" stroke="#ccc" stroke-width="1"/>
  </g>
</svg>
