<svg xmlns="http://www.w3.org/2000/svg" width="756.4" height="154.8" viewBox="0 0 756.4 154.8"><g transform="translate(-91 -1176.2)"><g transform="translate(76 -195)"><g transform="translate(4)"><path d="M39.2-66.2v-48H54c18.2,0,26.8,9.4,26.8,23.6S72.4-66.2,53.4-66.2ZM14-134.8V0H39.2V-45.8H56.8c27.8,0,49.6-16.6,49.6-44.8,0-25.4-19.4-44.2-50.2-44.2Z" transform="translate(71 1516)" fill="#fff" stroke="#fff" stroke-width="20"/><path d="M39.2-66.2v-48H54c18.2,0,26.8,9.4,26.8,23.6S72.4-66.2,53.4-66.2ZM14-134.8V0H39.2V-45.8H56.8c27.8,0,49.6-16.6,49.6-44.8,0-25.4-19.4-44.2-50.2-44.2Z" transform="translate(71 1516)" fill="#6c5da9"/></g><g transform="translate(-60)"><path d="M39.2-66.2v-48H54c18.2,0,26.8,9.4,26.8,23.6S72.4-66.2,53.4-66.2ZM14-134.8V0H39.2V-45.8H56.8c27.8,0,49.6-16.6,49.6-44.8,0-25.4-19.4-44.2-50.2-44.2Z" transform="translate(71 1516)" fill="#fff" stroke="#fff" stroke-width="20"/><path d="M39.2-66.2v-48H54c18.2,0,26.8,9.4,26.8,23.6S72.4-66.2,53.4-66.2ZM14-134.8V0H39.2V-45.8H56.8c27.8,0,49.6-16.6,49.6-44.8,0-25.4-19.4-44.2-50.2-44.2Z" transform="translate(71 1516)" fill="#6c5da9"/></g></g><g transform="translate(-126 -24)"><path d="M23.52-39.72v-28.8H32.4c10.92,0,16.08,5.64,16.08,14.16S43.44-39.72,32.04-39.72ZM8.4-80.88V0H23.52V-27.48H34.08c16.68,0,29.76-9.96,29.76-26.88,0-15.24-11.64-26.52-30.12-26.52Zm97.2,54.72v5.76c0,6-3.72,10.2-10.2,10.2-6,0-8.88-3-8.88-7.68,0-4.56,3.72-8.28,11.64-8.28ZM76.08-44.4a34.18,34.18,0,0,1,17.88-5.4c8.88,0,11.64,3.96,11.64,10.32v3.72H96.72c-16.56,0-25.2,7.08-25.2,18.48C71.52-7.32,78.48.48,90.36.48c9.36,0,13.92-4.2,15.84-7.8V0h14.28V-38.88c0-15.36-7.92-23.04-24.72-23.04-8.4,0-15.96,1.92-19.68,4.2Zm76.2,43.2c-3.12,8.04-8.04,11.88-15.48,11.88a16.427,16.427,0,0,1-4.08-.48V22.08a23.667,23.667,0,0,0,6,.6c11.76,0,21.24-6.84,27.84-24.36l21.96-59.16H173.4L167.04-41.4c-6.48,19.44-7.68,23.64-7.68,23.64s-.84-4.2-8.04-23.64l-7.08-19.44H128.28Zm74.64-10.32c-7.68,0-15.12-6.24-15.12-19.32,0-13.32,8.04-18.6,15.36-18.6,8.04,0,14.4,6.6,14.4,18.96C241.56-18.24,235.32-11.52,226.92-11.52ZM211.8-60.84H197.4V22.92h14.4V-9.12C216-2.4,222.48.84,230.28.84c16.44,0,26.04-13.8,26.04-31.56,0-18.36-9.96-30.96-25.92-30.96a21.053,21.053,0,0,0-18.6,10.2ZM269.28,0h14.4V-84.84h-14.4Zm67.2-35.4H310.92c1.44-9.96,7.32-14.76,13.8-14.76,7.8,0,11.4,5.52,11.76,12.96Zm9.84,19.56a27.61,27.61,0,0,1-16.2,4.8c-9.72,0-16.8-4.68-18.96-13.56h38.16a70.166,70.166,0,0,0,.84-8.64c0-18.96-10.44-28.2-25.8-28.2-15.24,0-27.72,11.04-27.72,31.08C296.64-12.48,308.16.6,327.96.6c5.88,0,13.92-1.2,18.36-3.96Zm67.92-14.88,1.08-3.48c9.24-29.4,10.32-35.4,10.32-35.4s1.2,6,10.32,35.28l1.08,3.6ZM446.64,0h16.32L435.6-80.88H416.04L388.68,0h15.84l5.76-18.36h30.6Zm43.08-39.72v-28.8h8.88c10.92,0,16.08,5.64,16.08,14.16s-5.04,14.64-16.44,14.64ZM474.6-80.88V0h15.12V-27.48h10.56c16.68,0,29.76-9.96,29.76-26.88,0-15.24-11.64-26.52-30.12-26.52ZM542.28,0H557.4V-80.88H542.28Z" transform="translate(416 1317)" fill="#fff"/></g></g></svg>