<svg xmlns="http://www.w3.org/2000/svg" width="796.72" height="160.898" viewBox="0 0 796.72 160.898">
  <g id="그룹_122" data-name="그룹 122" transform="translate(-137.2 -101)">
    <path id="패스_15" data-name="패스 15" d="M23.52-39.72h8.52q8.28,0,12.36-3.96t4.08-10.68q0-6.6-4.08-10.38t-12-3.78H23.52ZM8.4-80.88H33.72q13.68,0,21.9,7.44a24.576,24.576,0,0,1,8.22,19.08q0,12.36-8.46,19.62t-21.3,7.26H23.52V0H8.4Zm97.2,54.72H98.16q-5.64,0-8.64,2.34a7.225,7.225,0,0,0-3,5.94q0,7.68,8.88,7.68a9.891,9.891,0,0,0,7.5-2.82,10.227,10.227,0,0,0,2.7-7.38ZM76.08-44.4V-57.72q6.84-4.2,19.68-4.2,24.72,0,24.72,23.04V0H106.2V-7.32Q102,.48,90.36.48q-8.64,0-13.74-5.04a17.136,17.136,0,0,1-5.1-12.72q0-8.64,6.48-13.56t18.72-4.92h8.88v-3.72q0-5.04-2.64-7.68t-9-2.64A31.737,31.737,0,0,0,76.08-44.4Zm76.2,43.2-24-59.64h15.96l7.08,19.44q3.24,8.64,5.22,14.52T159-19.44l.36,1.68q1.2-4.2,7.68-23.64l6.36-19.44h15.12L166.56-1.68q-9.12,24.36-27.84,24.36a26.194,26.194,0,0,1-6-.6V10.2a16.773,16.773,0,0,0,4.08.48Q147.72,10.68,152.28-1.2Zm74.64-10.32a13.02,13.02,0,0,0,10.56-4.98q4.08-4.98,4.08-13.98t-4.08-13.98a12.781,12.781,0,0,0-10.32-4.98,14.578,14.578,0,0,0-10.8,4.68q-4.56,4.68-4.56,13.92t4.44,14.28A13.752,13.752,0,0,0,226.92-11.52ZM211.8-60.84v9.36a20.761,20.761,0,0,1,18.6-10.2q11.88,0,18.9,8.52t7.02,22.44q0,13.68-7.02,22.62T230.28.84q-12.24,0-18.48-9.96V22.92H197.4V-60.84ZM269.28,0V-84.84h14.4V0Zm67.2-35.4v-1.8a15.3,15.3,0,0,0-3.18-9.42q-2.94-3.54-8.58-3.54a12.222,12.222,0,0,0-8.94,3.78Q312-42.6,310.92-35.4Zm9.84,19.56V-3.36Q339.96.6,327.96.6q-14.52,0-22.92-8.64t-8.4-22.32q0-14.52,7.92-22.8a26.266,26.266,0,0,1,19.8-8.28q11.88,0,18.84,7.2t6.96,21a57.262,57.262,0,0,1-.84,8.64H311.16a16.362,16.362,0,0,0,6.54,10.08,21.161,21.161,0,0,0,12.42,3.48Q339.72-11.04,346.32-15.84Z" transform="translate(340.2 212.84)" fill="#fff"/>
    <g id="그룹_57" data-name="그룹 57" transform="translate(46.2 -168)">
      <path id="패스_11" data-name="패스 11" d="M31.133-124.679c23.908-.249,42.616-.772,58.31,7.625a56.266,56.266,0,0,1,11.5,8.221c24.837,22.6,22.861,62.978-.6,83.347a60.312,60.312,0,0,1-13.14,8.694C74.97-10.868,62.345-10.23,50.947-10.245V36.109H1.9V-124.485Zm19.814,69.8c7.962-.1,12-.84,14.575-3.04,4.813-4.107,5.1-15.021.081-19.057-2.727-2.192-6.78-2.882-14.657-2.939Z" transform="translate(159.223 393.788)" fill="#fff" opacity="0.999"/>
      <path id="패스_10" data-name="패스 10" d="M37.276-44.882h14.3q13.9,0,20.744-6.706t6.848-18.085q0-11.176-6.848-17.577t-20.14-6.4h-14.9ZM11.9-114.58H54.4q22.96,0,36.756,12.6t13.8,32.309q0,20.93-14.2,33.223T55-24.156H37.276V22.377H11.9Z" transform="translate(161.07 395.674)" fill="#6c5da9" opacity="0.999"/>
      <path id="패스_11-2" data-name="패스 11" d="M31.133-124.679c23.908-.249,42.616-.772,58.31,7.625a56.266,56.266,0,0,1,11.5,8.221c24.837,22.6,22.861,62.978-.6,83.347a60.312,60.312,0,0,1-13.14,8.694C74.97-10.868,62.345-10.23,50.947-10.245V36.109H1.9V-124.485Zm19.814,69.8c7.962-.1,12-.84,14.575-3.04,4.813-4.107,5.1-15.021.081-19.057-2.727-2.192-6.78-2.882-14.657-2.939Z" transform="translate(89.1 393.788)" fill="#fff" opacity="0.999"/>
      <path id="패스_10-2" data-name="패스 10" d="M37.276-44.882h14.3q13.9,0,20.744-6.706t6.848-18.085q0-11.176-6.848-17.577t-20.14-6.4h-14.9ZM11.9-114.58H54.4q22.96,0,36.756,12.6t13.8,32.309q0,20.93-14.2,33.223T55-24.156H37.276V22.377H11.9Z" transform="translate(90.947 395.674)" fill="#6c5da9" opacity="0.999"/>
    </g>
    <path id="패스_28" data-name="패스 28" d="M17.91-9.45h8.01q9.54,0,14.49-5.895t4.95-15.8q0-8.73-5.265-14.355T25.74-51.12H17.91ZM6.3-60.66H26.1q13.59,0,22.23,8.37t8.64,21.15q0,13.95-8.37,22.545T26.1,0H6.3ZM61.74-30.51q0-14.13,7.785-22.68T90.36-61.74q13.23,0,20.97,8.505t7.74,22.725q0,14.04-7.785,22.59T90.45.63Q77.4.63,69.57-7.92T61.74-30.51Zm12.15,0q0,9.54,4.5,15.12A14.7,14.7,0,0,0,90.45-9.81a14.586,14.586,0,0,0,12.06-5.535q4.41-5.535,4.41-15.165t-4.41-15.21Q98.1-51.3,90.36-51.3A14.539,14.539,0,0,0,78.3-45.72Q73.89-40.14,73.89-30.51Zm96.66-27.63v11.07a29.633,29.633,0,0,0-15.12-3.96A18.592,18.592,0,0,0,141.615-45.4Q136.08-39.78,136.08-30.33t5.535,15.03q5.535,5.58,14.445,5.58a23.687,23.687,0,0,0,14.58-4.5V-2.88Q165.06.72,154.98.72q-13.5,0-22.275-8.5T123.93-30.33q0-13.77,8.685-22.455T154.98-61.47Q164.97-61.47,170.55-58.14Zm41.49,0v10.98a27.525,27.525,0,0,0-14.4-4.05,10.393,10.393,0,0,0-6.615,1.89,5.927,5.927,0,0,0-2.385,4.86,5.906,5.906,0,0,0,2.565,4.9,42.735,42.735,0,0,0,7.7,4.275q3.6,1.62,5.85,2.835a32.187,32.187,0,0,1,4.9,3.375,13.536,13.536,0,0,1,3.96,5.175,17.184,17.184,0,0,1,1.305,6.885,15.918,15.918,0,0,1-5.805,12.915Q203.31.72,193.86.72q-10.26,0-17.01-3.87V-14.76a28.317,28.317,0,0,0,16.92,5.58,10.315,10.315,0,0,0,6.66-2.025,6.623,6.623,0,0,0,2.52-5.445,6.355,6.355,0,0,0-.63-2.88,7.068,7.068,0,0,0-2.565-2.52q-1.935-1.26-2.97-1.8t-4.275-1.98q-.9-.45-1.35-.63-3.33-1.53-5.4-2.745a32.343,32.343,0,0,1-4.5-3.285,13.135,13.135,0,0,1-3.645-4.95,16.769,16.769,0,0,1-1.215-6.57,15.249,15.249,0,0,1,5.715-12.42q5.715-4.68,15.165-4.68A33.916,33.916,0,0,1,212.04-58.14Z" transform="translate(719 211.74)" fill="#b288ff"/>
  </g>
</svg>
