<svg xmlns="http://www.w3.org/2000/svg" width="211.86" height="62.46" viewBox="0 0 211.86 62.46"><path d="M17.91-9.45h8.01q9.54,0,14.49-5.895t4.95-15.8q0-8.73-5.265-14.355T25.74-51.12H17.91ZM6.3-60.66H26.1q13.59,0,22.23,8.37t8.64,21.15q0,13.95-8.37,22.545T26.1,0H6.3ZM62.82-30.51q0-14.13,7.785-22.68T91.44-61.74q13.23,0,20.97,8.505t7.74,22.725q0,14.04-7.785,22.59T91.53.63Q78.48.63,70.65-7.92T62.82-30.51Zm12.15,0q0,9.54,4.5,15.12A14.7,14.7,0,0,0,91.53-9.81a14.586,14.586,0,0,0,12.06-5.535Q108-20.88,108-30.51t-4.41-15.21Q99.18-51.3,91.44-51.3a14.539,14.539,0,0,0-12.06,5.58Q74.97-40.14,74.97-30.51Zm97.74-27.63v11.07a29.633,29.633,0,0,0-15.12-3.96A18.592,18.592,0,0,0,143.775-45.4Q138.24-39.78,138.24-30.33t5.535,15.03q5.535,5.58,14.445,5.58a23.687,23.687,0,0,0,14.58-4.5V-2.88Q167.22.72,157.14.72q-13.5,0-22.275-8.5T126.09-30.33q0-13.77,8.685-22.455T157.14-61.47Q167.13-61.47,172.71-58.14Zm42.57,0v10.98a27.525,27.525,0,0,0-14.4-4.05,10.393,10.393,0,0,0-6.615,1.89,5.927,5.927,0,0,0-2.385,4.86,5.906,5.906,0,0,0,2.565,4.9,42.735,42.735,0,0,0,7.7,4.275q3.6,1.62,5.85,2.835a32.187,32.187,0,0,1,4.9,3.375,13.536,13.536,0,0,1,3.96,5.175,17.184,17.184,0,0,1,1.305,6.885,15.918,15.918,0,0,1-5.805,12.915Q206.55.72,197.1.72q-10.26,0-17.01-3.87V-14.76a28.317,28.317,0,0,0,16.92,5.58,10.315,10.315,0,0,0,6.66-2.025,6.623,6.623,0,0,0,2.52-5.445,6.355,6.355,0,0,0-.63-2.88,7.068,7.068,0,0,0-2.565-2.52q-1.935-1.26-2.97-1.8t-4.275-1.98q-.9-.45-1.35-.63-3.33-1.53-5.4-2.745a32.343,32.343,0,0,1-4.5-3.285,13.135,13.135,0,0,1-3.645-4.95,16.769,16.769,0,0,1-1.215-6.57,15.249,15.249,0,0,1,5.715-12.42q5.715-4.68,15.165-4.68A33.916,33.916,0,0,1,215.28-58.14Z" transform="translate(-6.3 61.74)" fill="#b388ff"/></svg>