<svg xmlns="http://www.w3.org/2000/svg" width="1011.068" height="160.898" viewBox="0 0 1011.068 160.898">
  <g id="그룹_220" data-name="그룹 220" transform="translate(-137.2 -101)">
    <path id="패스_15" data-name="패스 15" d="M23.52-39.72h8.52q8.28,0,12.36-3.96t4.08-10.68q0-6.6-4.08-10.38t-12-3.78H23.52ZM8.4-80.88H33.72q13.68,0,21.9,7.44a24.576,24.576,0,0,1,8.22,19.08q0,12.36-8.46,19.62t-21.3,7.26H23.52V0H8.4Zm97.2,54.72H98.16q-5.64,0-8.64,2.34a7.225,7.225,0,0,0-3,5.94q0,7.68,8.88,7.68a9.891,9.891,0,0,0,7.5-2.82,10.227,10.227,0,0,0,2.7-7.38ZM76.08-44.4V-57.72q6.84-4.2,19.68-4.2,24.72,0,24.72,23.04V0H106.2V-7.32Q102,.48,90.36.48q-8.64,0-13.74-5.04a17.136,17.136,0,0,1-5.1-12.72q0-8.64,6.48-13.56t18.72-4.92h8.88v-3.72q0-5.04-2.64-7.68t-9-2.64A31.737,31.737,0,0,0,76.08-44.4Zm76.2,43.2-24-59.64h15.96l7.08,19.44q3.24,8.64,5.22,14.52T159-19.44l.36,1.68q1.2-4.2,7.68-23.64l6.36-19.44h15.12L166.56-1.68q-9.12,24.36-27.84,24.36a26.194,26.194,0,0,1-6-.6V10.2a16.773,16.773,0,0,0,4.08.48Q147.72,10.68,152.28-1.2Zm74.64-10.32a13.02,13.02,0,0,0,10.56-4.98q4.08-4.98,4.08-13.98t-4.08-13.98a12.781,12.781,0,0,0-10.32-4.98,14.578,14.578,0,0,0-10.8,4.68q-4.56,4.68-4.56,13.92t4.44,14.28A13.752,13.752,0,0,0,226.92-11.52ZM211.8-60.84v9.36a20.761,20.761,0,0,1,18.6-10.2q11.88,0,18.9,8.52t7.02,22.44q0,13.68-7.02,22.62T230.28.84q-12.24,0-18.48-9.96V22.92H197.4V-60.84ZM269.28,0V-84.84h14.4V0Zm67.2-35.4v-1.8a15.3,15.3,0,0,0-3.18-9.42q-2.94-3.54-8.58-3.54a12.222,12.222,0,0,0-8.94,3.78Q312-42.6,310.92-35.4Zm9.84,19.56V-3.36Q339.96.6,327.96.6q-14.52,0-22.92-8.64t-8.4-22.32q0-14.52,7.92-22.8a26.266,26.266,0,0,1,19.8-8.28q11.88,0,18.84,7.2t6.96,21a57.262,57.262,0,0,1-.84,8.64H311.16a16.362,16.362,0,0,0,6.54,10.08,21.161,21.161,0,0,0,12.42,3.48Q339.72-11.04,346.32-15.84Z" transform="translate(340.2 212.84)" fill="#444"/>
    <g id="그룹_57" data-name="그룹 57" transform="translate(46.2 -168)">
      <path id="패스_11" data-name="패스 11" d="M31.133-124.679c23.908-.249,42.616-.772,58.31,7.625a56.266,56.266,0,0,1,11.5,8.221c24.837,22.6,22.861,62.978-.6,83.347a60.312,60.312,0,0,1-13.14,8.694C74.97-10.868,62.345-10.23,50.947-10.245V36.109H1.9V-124.485Zm19.814,69.8c7.962-.1,12-.84,14.575-3.04,4.813-4.107,5.1-15.021.081-19.057-2.727-2.192-6.78-2.882-14.657-2.939Z" transform="translate(159.223 393.788)" fill="#fff" opacity="0.999"/>
      <path id="패스_10" data-name="패스 10" d="M37.276-44.882h14.3q13.9,0,20.744-6.706t6.848-18.085q0-11.176-6.848-17.577t-20.14-6.4h-14.9ZM11.9-114.58H54.4q22.96,0,36.756,12.6t13.8,32.309q0,20.93-14.2,33.223T55-24.156H37.276V22.377H11.9Z" transform="translate(161.07 395.674)" fill="#6c5da9" opacity="0.999"/>
      <path id="패스_11-2" data-name="패스 11" d="M31.133-124.679c23.908-.249,42.616-.772,58.31,7.625a56.266,56.266,0,0,1,11.5,8.221c24.837,22.6,22.861,62.978-.6,83.347a60.312,60.312,0,0,1-13.14,8.694C74.97-10.868,62.345-10.23,50.947-10.245V36.109H1.9V-124.485Zm19.814,69.8c7.962-.1,12-.84,14.575-3.04,4.813-4.107,5.1-15.021.081-19.057-2.727-2.192-6.78-2.882-14.657-2.939Z" transform="translate(89.1 393.788)" fill="#fff" opacity="0.999"/>
      <path id="패스_10-2" data-name="패스 10" d="M37.276-44.882h14.3q13.9,0,20.744-6.706t6.848-18.085q0-11.176-6.848-17.577t-20.14-6.4h-14.9ZM11.9-114.58H54.4q22.96,0,36.756,12.6t13.8,32.309q0,20.93-14.2,33.223T55-24.156H37.276V22.377H11.9Z" transform="translate(90.947 395.674)" fill="#6c5da9" opacity="0.999"/>
    </g>
    <path id="패스_48" data-name="패스 48" d="M56.6-50.2a26.253,26.253,0,0,1-1.7,9.45A22.565,22.565,0,0,1,50-33a23.727,23.727,0,0,1-7.7,5.25A25.419,25.419,0,0,1,32.1-25.8a25.781,25.781,0,0,1-10.25-1.95A23.035,23.035,0,0,1,14.15-33,22.95,22.95,0,0,1,9.3-40.75,26.253,26.253,0,0,1,7.6-50.2a25.854,25.854,0,0,1,1.7-9.4,22.671,22.671,0,0,1,4.9-7.7,23.1,23.1,0,0,1,7.7-5.2,26,26,0,0,1,10.2-1.9,26,26,0,0,1,10.2,1.9A23.1,23.1,0,0,1,50-67.3a22.671,22.671,0,0,1,4.9,7.7A25.854,25.854,0,0,1,56.6-50.2ZM67.8-75.9H81.7v61.2H67.8V-33.8H56.2V-45H67.8v-9.9H56.2V-66.1H67.8ZM82.7,15.8H36.3a18.291,18.291,0,0,1-10.4-2.75Q21.8,10.3,21.8,4.6v-22H35.7V1.3q0,2.3,2.7,2.3H82.7Zm-40-66A14.248,14.248,0,0,0,40-59q-2.7-3.6-7.9-3.6-5.3,0-7.95,3.65A14.49,14.49,0,0,0,21.5-50.2a17.407,17.407,0,0,0,.65,4.85,11.872,11.872,0,0,0,2,4,9.728,9.728,0,0,0,3.3,2.75,10.076,10.076,0,0,0,4.65,1,9.923,9.923,0,0,0,4.5-1,9.591,9.591,0,0,0,3.35-2.75,12.622,12.622,0,0,0,2.05-4A16.246,16.246,0,0,0,42.7-50.2Zm122.2,9.5H141v5.2h36.1v11.8H90.9V-35.5h36.2v-5.2h-9.3a18.291,18.291,0,0,1-10.4-2.75q-4.1-2.75-4.1-8.45V-73.4h60.6v12.1H117.2V-55q0,2.2,2.5,2.2h45.2ZM160-.7a17.449,17.449,0,0,1-2.2,8.9,18.937,18.937,0,0,1-5.8,6.25,26.08,26.08,0,0,1-8.3,3.65,39.055,39.055,0,0,1-9.7,1.2,39.055,39.055,0,0,1-9.7-1.2,26.08,26.08,0,0,1-8.3-3.65,19.1,19.1,0,0,1-5.8-6.2A17.381,17.381,0,0,1,108-.7a17.981,17.981,0,0,1,2.15-9A18.923,18.923,0,0,1,115.9-16a26.233,26.233,0,0,1,8.3-3.75A37.97,37.97,0,0,1,134-21a39.464,39.464,0,0,1,9.8,1.2,25.438,25.438,0,0,1,8.3,3.7,18.77,18.77,0,0,1,5.75,6.35A18.264,18.264,0,0,1,160-.7Zm-14.1,0a7.794,7.794,0,0,0-3.25-6.8A14.685,14.685,0,0,0,134-9.8a14.685,14.685,0,0,0-8.65,2.3A7.794,7.794,0,0,0,122.1-.7a7.723,7.723,0,0,0,3.25,6.65A14.452,14.452,0,0,0,134,8.3a14.452,14.452,0,0,0,8.65-2.35A7.723,7.723,0,0,0,145.9-.7Zm34-15.4A62.529,62.529,0,0,0,192.65-24a56,56,0,0,0,9.45-9.65,51.193,51.193,0,0,0,6.3-10.75,51,51,0,0,0,3.4-11.3H183.5V-67.9h43.6q0,21.5-9.85,37.3T187.8-6.3Zm72-14.2V18.3H238V-75.9h13.9v33.4h14.5v12.2Zm81.9-45.6h13.9V18.3H333.8Zm-10,35.5a28.159,28.159,0,0,1-2,10.65,26.5,26.5,0,0,1-5.6,8.65,26.685,26.685,0,0,1-8.5,5.85A26.337,26.337,0,0,1,297-13.1a26.337,26.337,0,0,1-10.7-2.15,26.685,26.685,0,0,1-8.5-5.85,26.5,26.5,0,0,1-5.6-8.65,28.159,28.159,0,0,1-2-10.65,28.159,28.159,0,0,1,2-10.65,26.5,26.5,0,0,1,5.6-8.65,26.685,26.685,0,0,1,8.5-5.85A26.337,26.337,0,0,1,297-67.7a26.337,26.337,0,0,1,10.7,2.15,26.685,26.685,0,0,1,8.5,5.85,26.5,26.5,0,0,1,5.6,8.65A28.159,28.159,0,0,1,323.8-40.4Zm-13.9,0q0-6.7-3.3-10.9T297-55.5q-6.3,0-9.6,4.2t-3.3,10.9q0,6.7,3.3,10.9t9.6,4.2q6.3,0,9.6-4.2T309.9-40.4ZM441.1-4.9V7.3H354.9V-4.9ZM380.2-56.3v18.9a6.022,6.022,0,0,0,.75,3.55q.75.95,3.85.95h45.4v12.1H383.6a50.218,50.218,0,0,1-7.55-.5,13.116,13.116,0,0,1-5.4-1.95,8.917,8.917,0,0,1-3.25-4.1,18.067,18.067,0,0,1-1.1-6.85V-68.4h62.4v12.1Z" transform="translate(707.168 210.18)" fill="#b288ff"/>
  </g>
</svg>
