<svg xmlns="http://www.w3.org/2000/svg" width="191.308" height="189.44" viewBox="0 0 191.308 189.44">
  <g id="그룹_195" data-name="그룹 195" transform="translate(-495 -259)">
    <path id="surface1" d="M77.26,4A33.6,33.6,0,0,0,57.325,64.758L40.552,92.4A13.39,13.39,0,0,0,30,93.554a13.516,13.516,0,1,0,18.46,4.959,13.332,13.332,0,0,0-2.11-2.636l18.352-30.17,1.8-2.954-2.954-1.688a27.021,27.021,0,1,1,40.715-23.311,26.473,26.473,0,0,1-1.161,7.912l6.437,2a33.353,33.353,0,0,0,1.475-9.914A33.8,33.8,0,0,0,77.26,4Zm0,20.253a13.5,13.5,0,1,0,3.271,26.582L96.774,80.265l1.583,2.954,3.058-1.583A26.626,26.626,0,0,1,114.39,78.26a27,27,0,1,1-18.778,46.413l-4.641,4.854A33.741,33.741,0,1,0,114.39,71.509a33.222,33.222,0,0,0-13.08,2.954l-14.872-27a13.336,13.336,0,0,0,4.324-9.7A13.542,13.542,0,0,0,77.26,24.253Zm0,6.751a6.751,6.751,0,1,1-6.751,6.751A6.7,6.7,0,0,1,77.26,31ZM28.525,72.458a33.794,33.794,0,0,0,8.229,66.561c17.4,0,31.341-13.434,33.123-30.379h31.537a13.5,13.5,0,1,0,0-6.751H63.758v3.375A27,27,0,1,1,30.216,79.1Zm7.386,26.055a6.912,6.912,0,1,1-2.532.948,6.768,6.768,0,0,1,2.532-.949Zm78.479,0a6.751,6.751,0,1,1-6.751,6.751A6.7,6.7,0,0,1,114.39,98.513Z" transform="translate(514.5 257)" fill="#7852e8" stroke="#222" stroke-width="4"/>
    <path id="패스_42" data-name="패스 42" d="M32.064-2.4a3.807,3.807,0,0,1-1.08,2.3,2.853,2.853,0,0,1-1.992.768A2.9,2.9,0,0,1,27.144.048a3.742,3.742,0,0,1-1.176-2.016l-6.96-24.384L12.1-1.776A2.9,2.9,0,0,1,9.12.672a3.351,3.351,0,0,1-2.064-.72A4.394,4.394,0,0,1,5.9-2.736L1.584-30.768a3.156,3.156,0,0,1,.144-1.656q.288-.744,1.536-.744a1.958,1.958,0,0,1,1.152.336A2.432,2.432,0,0,1,5.088-31.2L8.5-8.688q.1.768.264,1.608a8.689,8.689,0,0,0,.36,1.344q.192.5.432.5t.528-.96L16.944-31.2q.576-1.968,2.016-1.968a1.678,1.678,0,0,1,1.2.408,3.96,3.96,0,0,1,.816,1.608q1.776,6.288,3.576,12.48t3.672,12.48q.768,2.352,1.1,0l3.7-24.912a3.37,3.37,0,0,1,.6-1.584,1.579,1.579,0,0,1,1.272-.48q1.2,0,1.512.672a2.608,2.608,0,0,1,.12,1.632ZM56.928-13.584a18.527,18.527,0,0,0-.264-3.1,8.618,8.618,0,0,0-.984-2.832,5.723,5.723,0,0,0-1.992-2.064,6.038,6.038,0,0,0-3.24-.792,6.15,6.15,0,0,0-3.48.912,7.255,7.255,0,0,0-2.184,2.232,9.082,9.082,0,0,0-1.152,2.856,13.14,13.14,0,0,0-.336,2.784ZM50.592,1.152A10.512,10.512,0,0,1,45.744.1,9.927,9.927,0,0,1,42.312-2.76a12.376,12.376,0,0,1-2.04-4.2,18.79,18.79,0,0,1-.672-5.088,18.692,18.692,0,0,1,.7-5.136A13.51,13.51,0,0,1,42.36-21.5a10.087,10.087,0,0,1,3.432-2.976,10.026,10.026,0,0,1,4.8-1.1,9.673,9.673,0,0,1,4.464.96A8.633,8.633,0,0,1,58.1-22.08a11,11,0,0,1,1.752,3.672,16.444,16.444,0,0,1,.576,4.392,5.1,5.1,0,0,1-.456,2.52,1.836,1.836,0,0,1-1.7.744H43.3a9.267,9.267,0,0,0,.432,3.072A9.15,9.15,0,0,0,45.144-4.9a7.525,7.525,0,0,0,2.328,2.04,6.389,6.389,0,0,0,3.216.792,10.629,10.629,0,0,0,3.96-.648,7.259,7.259,0,0,0,2.808-2.04,2.061,2.061,0,0,1,.912-.648,1.407,1.407,0,0,1,.768-.024,1.079,1.079,0,0,1,.552.36,1.967,1.967,0,0,1,.312.5,1.629,1.629,0,0,1-.12,1.536,5.456,5.456,0,0,1-1.68,1.9A11.31,11.31,0,0,1,55.056.48,13.5,13.5,0,0,1,50.592,1.152ZM83.568-12.1a17.364,17.364,0,0,0-.456-4.152A9.238,9.238,0,0,0,81.7-19.44a6.266,6.266,0,0,0-2.4-2.04,7.639,7.639,0,0,0-3.36-.7,5.809,5.809,0,0,0-3.048.792A6.914,6.914,0,0,0,70.656-19.2a10.836,10.836,0,0,0-1.392,3.24,15.507,15.507,0,0,0-.48,3.912,16.221,16.221,0,0,0,.432,3.84,9.861,9.861,0,0,0,1.3,3.1A6.26,6.26,0,0,0,72.7-3.048,6.3,6.3,0,0,0,75.84-2.3,6.763,6.763,0,0,0,81.5-4.9,11.673,11.673,0,0,0,83.568-12.1ZM68.928-1.248A2.178,2.178,0,0,1,68.5.1a1.644,1.644,0,0,1-1.488.528A1.71,1.71,0,0,1,65.544.072a2.159,2.159,0,0,1-.408-1.32V-33.36a2.178,2.178,0,0,1,.432-1.344,1.627,1.627,0,0,1,1.392-.576,1.7,1.7,0,0,1,1.416.576,2.1,2.1,0,0,1,.456,1.344v13.632a10.025,10.025,0,0,1,3.048-4.08,7.849,7.849,0,0,1,4.92-1.68,10.933,10.933,0,0,1,3.984.744,8.767,8.767,0,0,1,3.384,2.376A11.894,11.894,0,0,1,86.5-18.192a19.042,19.042,0,0,1,.864,6.1,17.421,17.421,0,0,1-.768,5.328,12.629,12.629,0,0,1-2.136,4.1,9.531,9.531,0,0,1-3.288,2.64,9.4,9.4,0,0,1-4.176.936A8.626,8.626,0,0,1,72.1-.432a9.018,9.018,0,0,1-3.168-3.84ZM107.664-14.4a17,17,0,0,0-.192-2.712,4.975,4.975,0,0,0-.7-1.944,3.068,3.068,0,0,0-1.416-1.152,5.972,5.972,0,0,0-2.3-.384,9,9,0,0,0-2.136.24,3.706,3.706,0,0,0-1.68.888,4.416,4.416,0,0,0-1.1,1.824,9.3,9.3,0,0,0-.408,3V-1.056A1.724,1.724,0,0,1,96.888.36a3.586,3.586,0,0,1-2.136.6A3.486,3.486,0,0,1,92.616.336a1.751,1.751,0,0,1-.84-1.392V-34.032a1.685,1.685,0,0,1,.888-1.44,3.84,3.84,0,0,1,2.136-.576,3.607,3.607,0,0,1,2.088.576,1.7,1.7,0,0,1,.84,1.44v12.48a9.668,9.668,0,0,1,1.032-1.632,7.45,7.45,0,0,1,1.44-1.392,6.8,6.8,0,0,1,1.92-.984,7.807,7.807,0,0,1,2.472-.36,10.454,10.454,0,0,1,3.5.576,8.181,8.181,0,0,1,2.856,1.7,8,8,0,0,1,1.944,2.856,10.427,10.427,0,0,1,.72,4.032v15.7a1.724,1.724,0,0,1-.792,1.44,3.559,3.559,0,0,1-2.136.576A3.787,3.787,0,0,1,108.5.384a1.7,1.7,0,0,1-.84-1.44Zm21.36-11.52a13.767,13.767,0,0,1,5.664,1.056,9.881,9.881,0,0,1,3.816,2.928,12.38,12.38,0,0,1,2.16,4.416,20.668,20.668,0,0,1,.7,5.472,20.063,20.063,0,0,1-.7,5.448,11.09,11.09,0,0,1-2.208,4.248,10.351,10.351,0,0,1-3.84,2.784,14.026,14.026,0,0,1-5.592,1.008A13.568,13.568,0,0,1,123.456.408a10.282,10.282,0,0,1-3.792-2.832,11.221,11.221,0,0,1-2.16-4.3,20.813,20.813,0,0,1-.672-5.424,21.088,21.088,0,0,1,.672-5.448,12.076,12.076,0,0,1,2.112-4.368,9.818,9.818,0,0,1,3.768-2.9A13.6,13.6,0,0,1,129.024-25.92Zm0,22.032a5.394,5.394,0,0,0,4.728-2.136,10.314,10.314,0,0,0,1.512-6.024,11.721,11.721,0,0,0-1.44-6.216q-1.44-2.328-4.9-2.328a5.641,5.641,0,0,0-2.88.672A5.175,5.175,0,0,0,124.2-18.1a8.006,8.006,0,0,0-.984,2.688,17.7,17.7,0,0,0-.288,3.264,10.958,10.958,0,0,0,1.44,6.072A5.164,5.164,0,0,0,129.024-3.888ZM155.856-25.92a13.767,13.767,0,0,1,5.664,1.056,9.881,9.881,0,0,1,3.816,2.928,12.38,12.38,0,0,1,2.16,4.416,20.668,20.668,0,0,1,.7,5.472,20.063,20.063,0,0,1-.7,5.448,11.091,11.091,0,0,1-2.208,4.248,10.351,10.351,0,0,1-3.84,2.784,14.026,14.026,0,0,1-5.592,1.008A13.568,13.568,0,0,1,150.288.408,10.282,10.282,0,0,1,146.5-2.424a11.221,11.221,0,0,1-2.16-4.3,20.812,20.812,0,0,1-.672-5.424,21.087,21.087,0,0,1,.672-5.448,12.076,12.076,0,0,1,2.112-4.368,9.818,9.818,0,0,1,3.768-2.9A13.6,13.6,0,0,1,155.856-25.92Zm0,22.032a5.394,5.394,0,0,0,4.728-2.136,10.314,10.314,0,0,0,1.512-6.024,11.721,11.721,0,0,0-1.44-6.216q-1.44-2.328-4.9-2.328a5.641,5.641,0,0,0-2.88.672,5.175,5.175,0,0,0-1.848,1.824,8.006,8.006,0,0,0-.984,2.688,17.7,17.7,0,0,0-.288,3.264,10.958,10.958,0,0,0,1.44,6.072A5.164,5.164,0,0,0,155.856-3.888Zm22.176,2.832a1.644,1.644,0,0,1-.84,1.416,4.194,4.194,0,0,1-2.184.6,3.452,3.452,0,0,1-2.184-.552,1.759,1.759,0,0,1-.84-1.464V-33.024a2.64,2.64,0,0,1,.648-1.944,3.351,3.351,0,0,1,2.376-.648,3.192,3.192,0,0,1,2.376.7,3.374,3.374,0,0,1,.648,2.328v17.136l9.168-9.168a2.373,2.373,0,0,1,2.088-.816,3.3,3.3,0,0,1,1.992.96,3.262,3.262,0,0,1,.936,2.064,3.178,3.178,0,0,1-1.08,2.5l-7.824,7.536,8.256,7.872a3.639,3.639,0,0,1,1.272,2.64A2.841,2.841,0,0,1,191.976.12a3.158,3.158,0,0,1-1.968.84,2.482,2.482,0,0,1-2.04-.768l-9.936-9.456Z" transform="translate(493.464 447)" fill="#222"/>
  </g>
</svg>
