<svg xmlns="http://www.w3.org/2000/svg" width="400" height="321.875" viewBox="0 0 400 321.875">
  <g id="그룹_196" data-name="그룹 196" transform="translate(-764 -17)">
    <rect id="사각형_100" data-name="사각형 100" width="400" height="321.875" transform="translate(764 17)" fill="#fff"/>
    <g id="그룹_194" data-name="그룹 194" transform="translate(383 41.393)">
      <path id="Icon_ionic-ios-cloud-outline" data-name="Icon ionic-ios-cloud-outline" d="M120.821,18.5A51.207,51.207,0,0,1,171.708,64.14l.5,4.657a5.478,5.478,0,0,0,4.489,4.824l4.615.839a26.2,26.2,0,0,1,15.4,9.271,28,28,0,0,1,6.377,17.662,28.969,28.969,0,0,1-7.929,19.633,25.738,25.738,0,0,1-18.5,8.223H38.134a25.3,25.3,0,0,1-18.417-8.264,28.89,28.89,0,0,1-7.929-19.633,29.913,29.913,0,0,1,5.5-17.158,27.157,27.157,0,0,1,14.138-10.53l4.321-1.384A5.5,5.5,0,0,0,39.56,67.16l.084-4.531a20.435,20.435,0,0,1,5.663-13.592,17.3,17.3,0,0,1,12.544-5.622,18.218,18.218,0,0,1,6.838,1.342l4.657,1.888a5.472,5.472,0,0,0,6.586-1.972l2.853-4.111A51.047,51.047,0,0,1,120.821,18.5m0-11.746A62.838,62.838,0,0,0,69.052,33.893a29.737,29.737,0,0,0-11.285-2.223c-16.4,0-29.7,14.431-29.953,30.793C11.075,67.79,0,84.151,0,101.351,0,122.411,17.074,141,38.134,141H176.7c21.06,0,38.134-18.585,38.134-39.644,0-18.752-13.55-35.281-31.422-38.47A63,63,0,0,0,120.821,6.75Z" transform="translate(474 41.25)" fill="#222"/>
      <g id="그룹_192" data-name="그룹 192" transform="translate(25 -71)">
        <rect id="사각형_99" data-name="사각형 99" width="138.44" height="118.013" transform="translate(490 190.24)" fill="#fff"/>
        <g id="그룹_191" data-name="그룹 191">
          <g id="그룹_190" data-name="그룹 190" transform="translate(-2.4)">
            <path id="패스_39" data-name="패스 39" d="M4.4-52.261q0-1.669.592-2.127a4.469,4.469,0,0,1,2.476-.458H16.19q5.707,0,8.721,2.423t3.015,7.806q0,5.33-3.122,7.887T16.19-34.172H14.736L26.58-22.7q.538.592,1.023,1.184a5.438,5.438,0,0,1,.754,1.184,2.431,2.431,0,0,1,.242,1.131,1.447,1.447,0,0,1-.458.969,2.321,2.321,0,0,1-1.615.727,2.058,2.058,0,0,1-1.615-.727L9.191-34.172H8.653v14.536A2.329,2.329,0,0,1,8.142-18.1a1.942,1.942,0,0,1-1.588.619A2,2,0,0,1,4.885-18.1,2.413,2.413,0,0,1,4.4-19.636ZM8.653-37.887H16.19a8.608,8.608,0,0,0,5.6-1.561q1.884-1.561,1.884-5.061t-1.965-5.007a8.89,8.89,0,0,0-5.518-1.507H8.653ZM39.662-21.736H53.5q.861,0,1.642.027a6.037,6.037,0,0,1,1.373.188,1.951,1.951,0,0,1,.942.538,1.525,1.525,0,0,1,.35,1.077,1.658,1.658,0,0,1-.592,1.507,3.753,3.753,0,0,1-1.938.377H37.886a3.114,3.114,0,0,1-1.857-.458,2.214,2.214,0,0,1-.619-1.857V-52.53a2.434,2.434,0,0,1,.538-1.8,2.821,2.821,0,0,1,1.938-.511H54.952a2.919,2.919,0,0,1,1.7.4,1.824,1.824,0,0,1,.619,1.48,1.6,1.6,0,0,1-.592,1.427,3.055,3.055,0,0,1-1.723.4H39.662v12.221H54.413a2.869,2.869,0,0,1,1.777.431,1.831,1.831,0,0,1,.538,1.507,1.6,1.6,0,0,1-.538,1.4,3.188,3.188,0,0,1-1.777.377H39.662ZM68.3-46.393a4.637,4.637,0,0,0,.7,2.584,7.009,7.009,0,0,0,1.83,1.884,16.95,16.95,0,0,0,2.611,1.507q1.48.7,3.042,1.4a34.565,34.565,0,0,1,3.661,1.884,12.141,12.141,0,0,1,2.746,2.207,8.553,8.553,0,0,1,1.723,2.853,10.931,10.931,0,0,1,.592,3.768,11.063,11.063,0,0,1-.861,4.388,10.381,10.381,0,0,1-2.423,3.5A11.165,11.165,0,0,1,78.182-18.1a14.054,14.054,0,0,1-4.764.888,14.346,14.346,0,0,1-4.011-.458,19.274,19.274,0,0,1-3.526-1.265,6.855,6.855,0,0,1-3.015-2.476,1.994,1.994,0,0,1,0-2.261,1.57,1.57,0,0,1,1.373-.7,3.648,3.648,0,0,1,1.7.646A19.9,19.9,0,0,0,69.46-21.87a10.93,10.93,0,0,0,4.172.781,7.13,7.13,0,0,0,2.719-.538,8.033,8.033,0,0,0,2.342-1.454,6.962,6.962,0,0,0,1.642-2.207,6.394,6.394,0,0,0,.619-2.8,6.108,6.108,0,0,0-.592-2.719A7.7,7.7,0,0,0,78.8-32.961a10.256,10.256,0,0,0-2.18-1.615,22.42,22.42,0,0,0-2.4-1.157q-2.207-.861-4.092-1.777a14.96,14.96,0,0,1-3.257-2.1,8.221,8.221,0,0,1-2.127-2.826A9.58,9.58,0,0,1,64-46.446a8.717,8.717,0,0,1,.861-3.9,9.113,9.113,0,0,1,2.288-2.961,9.812,9.812,0,0,1,3.284-1.83,12.261,12.261,0,0,1,3.9-.619,14.155,14.155,0,0,1,3.984.565,13.816,13.816,0,0,1,3.311,1.4,5.384,5.384,0,0,1,1.965,1.884,1.962,1.962,0,0,1,0,2.073,1.532,1.532,0,0,1-1.454.781,3.088,3.088,0,0,1-1.777-.619,19.647,19.647,0,0,0-2.692-1.534,7.064,7.064,0,0,0-3.338-.727,6.1,6.1,0,0,0-4.388,1.561A5.257,5.257,0,0,0,68.3-46.393Zm36.77-4.576v31.332a2.551,2.551,0,0,1-.431,1.615,2.063,2.063,0,0,1-1.669.538,2.005,2.005,0,0,1-1.669-.565,2.571,2.571,0,0,1-.431-1.588V-50.969H92.206a2.473,2.473,0,0,1-1.534-.431,1.784,1.784,0,0,1-.565-1.507,1.755,1.755,0,0,1,.592-1.48,2.393,2.393,0,0,1,1.507-.458H113.74a2.224,2.224,0,0,1,1.507.511,1.85,1.85,0,0,1,.592,1.48,1.582,1.582,0,0,1-.673,1.48,2.729,2.729,0,0,1-1.427.4Z" transform="translate(503 258)" fill="#222"/>
          </g>
          <g id="그룹_189" data-name="그룹 189" transform="translate(-0.958)">
            <path id="패스_38" data-name="패스 38" d="M13.453-23.027,10.83-16.171a5.759,5.759,0,0,1-1.491,2.3,4.044,4.044,0,0,1-2.8.865,4.191,4.191,0,0,1-2.951-1.014q-1.1-1.014-.268-3.458L15.6-53.315a3.439,3.439,0,0,1,1.282-1.7,4.291,4.291,0,0,1,2.653-.745,4.291,4.291,0,0,1,2.653.745,3.439,3.439,0,0,1,1.282,1.7l12.4,35.952q.715,2.266-.388,3.309a4.119,4.119,0,0,1-2.951,1.043,3.637,3.637,0,0,1-2.743-.8,5.841,5.841,0,0,1-1.371-2.057l-2.862-7.155Zm10.672-6.737L19.534-44.551,14.943-29.765Z" transform="translate(500 309.26)" fill="#222" stroke="#222" stroke-width="2"/>
            <path id="패스_40" data-name="패스 40" d="M55.487-51.229a8.03,8.03,0,0,1,.209-2.027,2.049,2.049,0,0,1,.8-1.192,3.873,3.873,0,0,1,1.7-.566,22.476,22.476,0,0,1,2.892-.149H69.5a28.76,28.76,0,0,1,6.648.656A10.061,10.061,0,0,1,80.588-52.3a8.8,8.8,0,0,1,2.5,4.084,21.558,21.558,0,0,1,.775,6.231,21,21,0,0,1-.835,6.32,10.09,10.09,0,0,1-2.564,4.293,10.358,10.358,0,0,1-4.442,2.445,23.994,23.994,0,0,1-6.529.775h-6.26v12.044a3.06,3.06,0,0,1-.894,2.146,3.946,3.946,0,0,1-2.981.954,3.8,3.8,0,0,1-2.981-1.014,3.142,3.142,0,0,1-.894-2.087Zm7.751,16.4H69.5q3.816,0,5.217-1.669t1.4-5.426a8.678,8.678,0,0,0-.507-3.22,4.961,4.961,0,0,0-1.4-2,4.88,4.88,0,0,0-2.087-1.014,11.959,11.959,0,0,0-2.623-.268h-6.26Z" transform="translate(500 308.664)" fill="#222" stroke="#222" stroke-width="2"/>
            <path id="패스_41" data-name="패스 41" d="M110.578-16.827a3.965,3.965,0,0,1-.924,2.862,4.053,4.053,0,0,1-3.011.954,3.84,3.84,0,0,1-2.951-.954,4.044,4.044,0,0,1-.865-2.8V-51.944q0-3.816,3.816-3.816a4.49,4.49,0,0,1,2.922.835A3.606,3.606,0,0,1,110.578-52Z" transform="translate(499 309.26)" fill="#222" stroke="#222" stroke-width="2"/>
          </g>
        </g>
      </g>
      <g id="그룹_193" data-name="그룹 193" transform="translate(60 -251)">
        <ellipse id="타원_5" data-name="타원 5" cx="41.708" cy="41.716" rx="41.708" ry="41.716" transform="translate(523.808 286.608)" fill="#fff"/>
        <path id="Icon_ionic-ios-settings" data-name="Icon ionic-ios-settings" d="M59.011,34.208a7.646,7.646,0,0,1,4.9-7.133,30.306,30.306,0,0,0-3.667-8.835,7.748,7.748,0,0,1-3.11.665A7.629,7.629,0,0,1,50.161,8.167,30.214,30.214,0,0,0,41.341,4.5a7.639,7.639,0,0,1-14.266,0A30.306,30.306,0,0,0,18.24,8.167a7.629,7.629,0,0,1-6.978,10.738,7.5,7.5,0,0,1-3.11-.665A30.976,30.976,0,0,0,4.5,27.09a7.643,7.643,0,0,1,.015,14.266,30.306,30.306,0,0,0,3.667,8.835A7.632,7.632,0,0,1,18.255,60.264a30.483,30.483,0,0,0,8.835,3.667,7.625,7.625,0,0,1,14.235,0,30.306,30.306,0,0,0,8.835-3.667A7.639,7.639,0,0,1,60.233,50.191,30.483,30.483,0,0,0,63.9,41.356,7.682,7.682,0,0,1,59.011,34.208ZM34.347,46.571A12.378,12.378,0,1,1,46.726,34.192,12.375,12.375,0,0,1,34.347,46.571Z" transform="translate(531.308 294.108)" fill="#7852e8"/>
      </g>
    </g>
  </g>
</svg>
