<svg xmlns="http://www.w3.org/2000/svg" xmlns:xlink="http://www.w3.org/1999/xlink" width="524" height="90" viewBox="0 0 524 90">
  <defs>
    <clipPath id="clip-c-10-1_1">
      <rect width="524" height="90"/>
    </clipPath>
  </defs>
  <g id="c-10-1_1" data-name="c-10-1 – 1" clip-path="url(#clip-c-10-1_1)">
    <rect width="524" height="90" fill="#fff"/>
    <g id="그룹_218" data-name="그룹 218" transform="translate(-3 -11)">
      <g id="그룹_176" data-name="그룹 176" transform="translate(-11 5)">
        <circle id="타원_4" data-name="타원 4" cx="10.5" cy="10.5" r="10.5" transform="translate(34 22)" fill="#7c4dff"/>
        <text id="_1" data-name="1" transform="translate(40 38)" fill="#fff" font-size="14" font-family="NotoSansKR-Black, Noto Sans KR" font-weight="800" letter-spacing="-0.04em"><tspan x="0" y="0">1</tspan></text>
      </g>
      <g id="그룹_177" data-name="그룹 177" transform="translate(332 5)">
        <circle id="타원_4-2" data-name="타원 4" cx="10.5" cy="10.5" r="10.5" transform="translate(34 22)" fill="#7c4dff"/>
        <text id="_2" data-name="2" transform="translate(40 38)" fill="#fff" font-size="14" font-family="NotoSansKR-Black, Noto Sans KR" font-weight="800" letter-spacing="-0.04em"><tspan x="0" y="0">2</tspan></text>
      </g>
      <g id="그룹_178" data-name="그룹 178" transform="translate(392 5)">
        <circle id="타원_4-3" data-name="타원 4" cx="10.5" cy="10.5" r="10.5" transform="translate(34 22)" fill="#7c4dff"/>
        <text id="_3" data-name="3" transform="translate(40 38)" fill="#fff" font-size="14" font-family="NotoSansKR-Black, Noto Sans KR" font-weight="800" letter-spacing="-0.04em"><tspan x="0" y="0">3</tspan></text>
      </g>
      <g id="그룹_217" data-name="그룹 217">
        <g id="그룹_88" data-name="그룹 88" transform="translate(29 -348.357)">
          <g id="사각형_84" data-name="사각형 84" transform="translate(336.798 404.357)" fill="none" stroke="#d4c9ff" stroke-width="2" stroke-dasharray="6 4">
            <rect width="37.966" height="26.682" rx="8" stroke="none"/>
            <rect x="1" y="1" width="35.966" height="24.682" rx="7" fill="none"/>
          </g>
          <path id="패스_44" data-name="패스 44" d="M5.278.182c2.646,0,4.494-2.058,4.494-5.376S7.924-10.5,5.278-10.5.8-8.512.8-5.194,2.632.182,5.278.182Zm0-1.414c-1.708,0-2.814-1.54-2.814-3.962S3.57-9.086,5.278-9.086s2.828,1.47,2.828,3.892S6.986-1.232,5.278-1.232ZM11.354,0h1.624V-10.3H11.354ZM15.12,0h2.758c3.08,0,4.886-1.848,4.886-5.194s-1.806-5.11-4.97-5.11H15.12Zm1.624-1.33V-8.988h.938c2.212,0,3.4,1.218,3.4,3.794s-1.19,3.864-3.4,3.864Z" transform="translate(344 422.857)"/>
        </g>
        <g id="그룹_170" data-name="그룹 170" transform="translate(90 -348.357)">
          <g id="사각형_84-2" data-name="사각형 84" transform="translate(336 404.357)" fill="none" stroke="#d4c9ff" stroke-width="2" stroke-dasharray="6 4">
            <rect width="80.456" height="26.682" rx="8" stroke="none"/>
            <rect x="1" y="1" width="78.456" height="24.682" rx="7" fill="none"/>
          </g>
          <path id="패스_45" data-name="패스 45" d="M2.912-4.214,3.332-5.6c.336-1.12.658-2.254.952-3.43H4.34c.322,1.162.63,2.31.98,3.43l.406,1.386ZM6.986,0H8.708L5.292-10.3H3.416L0,0H1.652l.882-2.94H6.118ZM9.352,0h5.88V-1.33H13.216V-10.3H12a6.33,6.33,0,0,1-2.24.784V-8.5h1.848V-1.33H9.352Zm7.574,0H20.37c2.282,0,3.948-.98,3.948-3.024a2.366,2.366,0,0,0-2.03-2.45v-.07a2.292,2.292,0,0,0,1.47-2.226c0-1.862-1.526-2.534-3.64-2.534H16.926ZM18.55-6.006V-9.044h1.428c1.456,0,2.184.406,2.184,1.484,0,.966-.658,1.554-2.226,1.554Zm0,4.732v-3.5h1.638c1.638,0,2.534.5,2.534,1.666,0,1.26-.924,1.834-2.534,1.834ZM24.962,0h6.65V-1.372H29.036c-.5,0-1.148.042-1.68.1,2.184-2.086,3.766-4.144,3.766-6.132A2.914,2.914,0,0,0,28.014-10.5a4.043,4.043,0,0,0-3.136,1.54l.91.9a2.8,2.8,0,0,1,2.03-1.148,1.68,1.68,0,0,1,1.75,1.89c0,1.694-1.568,3.7-4.606,6.384Zm12.18.182A4.069,4.069,0,0,0,40.348-1.3L39.48-2.324A3,3,0,0,1,37.2-1.232c-1.82,0-2.968-1.5-2.968-3.948,0-2.422,1.232-3.906,3.01-3.906a2.741,2.741,0,0,1,2.016.924L40.138-9.2a3.971,3.971,0,0,0-2.926-1.3c-2.6,0-4.648,2.016-4.648,5.376S34.552.182,37.142.182Zm6.86,0c1.89,0,3.444-1.092,3.444-2.954a2.609,2.609,0,0,0-2.128-2.576v-.07A2.491,2.491,0,0,0,47.1-7.84c0-1.708-1.3-2.66-3.15-2.66a4.343,4.343,0,0,0-2.954,1.246l.84,1.008a3.017,3.017,0,0,1,2.058-.98,1.442,1.442,0,0,1,1.582,1.5c0,1.036-.672,1.806-2.7,1.806v1.19c2.324,0,3.052.742,3.052,1.89a1.73,1.73,0,0,1-1.96,1.708,3.33,3.33,0,0,1-2.436-1.134l-.784,1.036A4.277,4.277,0,0,0,44,.182ZM49.028,0h2.758c3.08,0,4.886-1.848,4.886-5.194S54.866-10.3,51.7-10.3H49.028Zm1.624-1.33V-8.988h.938c2.212,0,3.4,1.218,3.4,3.794S53.8-1.33,51.59-1.33ZM58.8-4.018l2.03-3.108c.294-.532.574-1.064.826-1.582h.056c-.028.56-.084,1.428-.084,1.988v2.7Zm5.656,0H63.14V-10.3H61.278l-4.1,6.454v1.078h4.452V0H63.14V-2.772h1.316Z" transform="translate(344 422.857)"/>
        </g>
        <g id="그룹_173" data-name="그룹 173" transform="translate(8 -348.119)">
          <rect id="사각형_84-3" data-name="사각형 84" width="21.544" height="26.92" rx="8" transform="translate(336.616 404.119)" fill="none"/>
          <path id="패스_46" data-name="패스 46" d="M2.492-3.29H3.906C3.668-5.376,6.16-6.132,6.16-8.176A2.481,2.481,0,0,0,3.4-10.738,3.663,3.663,0,0,0,.616-9.394l.91.826A2.28,2.28,0,0,1,3.22-9.422,1.282,1.282,0,0,1,4.592-8.064C4.592-6.538,2.156-5.642,2.492-3.29ZM3.22.182A1.071,1.071,0,0,0,4.3-.938,1.1,1.1,0,0,0,3.22-2.086,1.087,1.087,0,0,0,2.142-.938,1.063,1.063,0,0,0,3.22.182Z" transform="translate(344 422.857)"/>
        </g>
        <g id="그룹_216" data-name="그룹 216" transform="translate(67 -348.34)">
          <rect id="사각형_84-4" data-name="사각형 84" width="22.916" height="20.648" rx="8" transform="translate(336.532 407.339)" fill="none"/>
          <path id="패스_47" data-name="패스 47" d="M.532-6.342H7.448V-7.518H.532Zm0,3.472H7.448V-4.046H.532Z" transform="translate(344 422.857)"/>
        </g>
        <g id="그룹_215" data-name="그룹 215" transform="translate(-314 -349.686)">
          <g id="사각형_84-5" data-name="사각형 84" transform="translate(337.218 403.685)" fill="none" stroke="#d4c9ff" stroke-width="2" stroke-dasharray="6 4">
            <rect width="321.354" height="30.63" rx="8" stroke="none"/>
            <rect x="1" y="1" width="319.354" height="28.63" rx="7" fill="none"/>
          </g>
          <path id="패스_43" data-name="패스 43" d="M1.218,0h1.6V-5.46A2.629,2.629,0,0,1,4.7-6.51c.91,0,1.3.532,1.3,1.862V0h1.61V-4.844C7.616-6.8,6.888-7.9,5.25-7.9A3.583,3.583,0,0,0,2.758-6.678L2.814-8.2v-2.954h-1.6ZM11.942.182A4.927,4.927,0,0,0,13.454-.1l-.294-1.19a2.3,2.3,0,0,1-.826.182c-.8,0-1.12-.476-1.12-1.4V-6.412h2V-7.7h-2V-9.828H9.856L9.674-7.7l-1.19.084v1.2H9.6V-2.52C9.6-.9,10.206.182,11.942.182Zm4.676,0A4.927,4.927,0,0,0,18.13-.1l-.294-1.19a2.3,2.3,0,0,1-.826.182c-.8,0-1.12-.476-1.12-1.4V-6.412h2V-7.7h-2V-9.828H14.532L14.35-7.7l-1.19.084v1.2h1.12V-2.52C14.28-.9,14.882.182,16.618.182Zm2.394,2.94h1.6V.63L20.566-.686A3.175,3.175,0,0,0,22.6.182c1.736,0,3.318-1.512,3.318-4.158,0-2.366-1.092-3.92-3.052-3.92A3.9,3.9,0,0,0,20.5-6.86h-.042l-.126-.84H19.012Zm3.276-4.27a2.609,2.609,0,0,1-1.68-.7V-5.614a2.706,2.706,0,0,1,1.834-.938c1.288,0,1.806.994,1.806,2.6C24.248-2.142,23.408-1.148,22.288-1.148ZM29.316.182c1.9,0,2.926-1.05,2.926-2.338,0-1.456-1.19-1.932-2.268-2.338-.84-.308-1.638-.56-1.638-1.218,0-.532.392-.952,1.232-.952a2.882,2.882,0,0,1,1.722.672l.756-.994A4.053,4.053,0,0,0,29.54-7.9c-1.694,0-2.73.966-2.73,2.254s1.176,1.848,2.2,2.24c.84.322,1.708.63,1.708,1.33,0,.588-.434,1.036-1.358,1.036a3.413,3.413,0,0,1-2.184-.882L26.418-.882A4.736,4.736,0,0,0,29.316.182Zm4.942-5.5a1.08,1.08,0,0,0,1.078-1.12,1.1,1.1,0,0,0-1.078-1.148A1.1,1.1,0,0,0,33.18-6.44,1.08,1.08,0,0,0,34.258-5.32Zm0,5.5a1.071,1.071,0,0,0,1.078-1.12,1.1,1.1,0,0,0-1.078-1.148A1.1,1.1,0,0,0,33.18-.938,1.071,1.071,0,0,0,34.258.182ZM35.952,2.52h1.12l3.892-13.692h-1.12Zm4.9,0h1.12l3.892-13.692h-1.12ZM49.462.182A4.927,4.927,0,0,0,50.974-.1l-.294-1.19a2.3,2.3,0,0,1-.826.182c-.8,0-1.12-.476-1.12-1.4V-6.412h2V-7.7h-2V-9.828H47.376L47.194-7.7,46-7.616v1.2h1.12V-2.52C47.124-.9,47.726.182,49.462.182Zm5.362,0a4.671,4.671,0,0,0,2.6-.812l-.56-1.022a3.269,3.269,0,0,1-1.834.574,2.325,2.325,0,0,1-2.38-2.352h5a4.161,4.161,0,0,0,.07-.812c0-2.184-1.092-3.654-3.136-3.654-1.806,0-3.514,1.554-3.514,4.06A3.7,3.7,0,0,0,54.824.182ZM52.64-4.536a2.088,2.088,0,0,1,1.974-2.1c1.12,0,1.722.77,1.722,2.1ZM61.054.182c1.9,0,2.926-1.05,2.926-2.338,0-1.456-1.19-1.932-2.268-2.338-.84-.308-1.638-.56-1.638-1.218,0-.532.392-.952,1.232-.952a2.882,2.882,0,0,1,1.722.672l.756-.994a4.053,4.053,0,0,0-2.506-.91c-1.694,0-2.73.966-2.73,2.254s1.176,1.848,2.2,2.24c.84.322,1.708.63,1.708,1.33,0,.588-.434,1.036-1.358,1.036a3.413,3.413,0,0,1-2.184-.882L58.156-.882A4.736,4.736,0,0,0,61.054.182Zm6.356,0A4.927,4.927,0,0,0,68.922-.1l-.294-1.19a2.3,2.3,0,0,1-.826.182c-.8,0-1.12-.476-1.12-1.4V-6.412h2V-7.7h-2V-9.828H65.324L65.142-7.7l-1.19.084v1.2h1.12V-2.52C65.072-.9,65.674.182,67.41.182Zm3.99,0a2.586,2.586,0,0,0,.868-.126l-.21-1.218a1.118,1.118,0,0,1-.266.028c-.2,0-.392-.154-.392-.588v-9.436H69.8v9.352C69.8-.56,70.238.182,71.4.182ZM73.416,0h1.6V-7.7h-1.6Zm.8-9.142a.966.966,0,0,0,1.036-.952.958.958,0,0,0-1.036-.952.946.946,0,0,0-1.022.952A.954.954,0,0,0,74.214-9.142ZM76.874,0h1.6V-5.46a2.629,2.629,0,0,1,1.89-1.05c.91,0,1.3.532,1.3,1.862V0h1.61V-4.844c0-1.96-.728-3.052-2.366-3.052a3.669,3.669,0,0,0-2.548,1.26h-.042L78.19-7.7H76.874ZM85.05,0h1.568V-1.988l1.3-1.5L90.006,0h1.75L88.844-4.578,91.462-7.7H89.684L86.66-3.962h-.042v-7.2H85.05Zm8.512.182A1.071,1.071,0,0,0,94.64-.938a1.1,1.1,0,0,0-1.078-1.148A1.1,1.1,0,0,0,92.484-.938,1.071,1.071,0,0,0,93.562.182Zm2.744,2.94h1.6V.63L97.86-.686a3.175,3.175,0,0,0,2.03.868c1.736,0,3.318-1.512,3.318-4.158,0-2.366-1.092-3.92-3.052-3.92A3.9,3.9,0,0,0,97.79-6.86h-.042l-.126-.84H96.306Zm3.276-4.27a2.609,2.609,0,0,1-1.68-.7V-5.614a2.706,2.706,0,0,1,1.834-.938c1.288,0,1.806.994,1.806,2.6C101.542-2.142,100.7-1.148,99.582-1.148Zm6.594,1.33a3.828,3.828,0,0,0,2.45-1.064h.042l.14.882h1.316V-4.634c0-2.044-.882-3.262-2.8-3.262a5.9,5.9,0,0,0-3.108,1.008l.6,1.092a4.234,4.234,0,0,1,2.226-.784c1.134,0,1.456.784,1.47,1.68-3.206.35-4.606,1.2-4.606,2.856A2.127,2.127,0,0,0,106.176.182Zm.49-1.274c-.686,0-1.2-.308-1.2-1.064,0-.868.77-1.442,3.052-1.722v1.89A2.714,2.714,0,0,1,106.666-1.092Zm11.4-6.608h-1.568l-1.232,3.962-.6,2.17h-.07c-.238-.714-.476-1.484-.7-2.17L112.462-7.7H110.81l3.052,7.644-.154.532c-.28.826-.77,1.442-1.61,1.442a2.086,2.086,0,0,1-.56-.112l-.308,1.26a2.738,2.738,0,0,0,.966.154c1.624,0,2.436-1.106,3.038-2.758Zm.84,10.822h1.6V.63l-.042-1.316a3.175,3.175,0,0,0,2.03.868c1.736,0,3.318-1.512,3.318-4.158,0-2.366-1.092-3.92-3.052-3.92a3.9,3.9,0,0,0-2.366,1.036h-.042l-.126-.84H118.9Zm3.276-4.27a2.609,2.609,0,0,1-1.68-.7V-5.614a2.706,2.706,0,0,1,1.834-.938c1.288,0,1.806.994,1.806,2.6C124.138-2.142,123.3-1.148,122.178-1.148Zm6.58,1.33a2.586,2.586,0,0,0,.868-.126l-.21-1.218a1.118,1.118,0,0,1-.266.028c-.2,0-.392-.154-.392-.588v-9.436h-1.6v9.352C127.162-.56,127.6.182,128.758.182Zm5.222,0a4.671,4.671,0,0,0,2.6-.812l-.56-1.022a3.269,3.269,0,0,1-1.834.574,2.325,2.325,0,0,1-2.38-2.352h5a4.161,4.161,0,0,0,.07-.812c0-2.184-1.092-3.654-3.136-3.654-1.806,0-3.514,1.554-3.514,4.06A3.7,3.7,0,0,0,133.98.182ZM131.8-4.536a2.088,2.088,0,0,1,1.974-2.1c1.12,0,1.722.77,1.722,2.1Zm7.2,4.718a1.071,1.071,0,0,0,1.078-1.12,1.1,1.1,0,0,0-1.078-1.148,1.1,1.1,0,0,0-1.078,1.148A1.071,1.071,0,0,0,138.992.182ZM141.736,0H143.3V-1.988l1.3-1.5L146.692,0h1.75L145.53-4.578,148.148-7.7H146.37l-3.024,3.738H143.3v-7.2h-1.568Zm7.49,0h1.6V-4.8c.49-1.218,1.246-1.652,1.876-1.652a2.278,2.278,0,0,1,.77.126l.294-1.4a1.915,1.915,0,0,0-.868-.168,2.662,2.662,0,0,0-2.184,1.582h-.042L150.542-7.7h-1.316Zm3.626,2.52h1.12l3.892-13.692h-1.12ZM158.942,0H160.4V-5.1c0-.924-.126-2.254-.2-3.192h.056l.812,2.38,1.806,4.914h1.008l1.792-4.914.826-2.38h.056c-.084.938-.21,2.268-.21,3.192V0h1.512V-10.3h-1.876L164.122-5.1c-.238.686-.434,1.386-.672,2.086h-.07c-.238-.7-.448-1.4-.686-2.086L160.8-10.3h-1.862ZM172.1,0h1.624V-8.946h3.038V-10.3h-7.686v1.358H172.1Zm5.88,0h1.624V-10.3h-1.624Zm6.692-1.05c-1.106,0-1.848-.966-2.016-3.01a2.4,2.4,0,0,1,1.918-1.2c1.106,0,1.694.742,1.694,2.072S185.57-1.05,184.674-1.05ZM187.6-9.394a3.46,3.46,0,0,0-2.576-1.106c-2.03,0-3.892,1.582-3.892,5.544,0,3.5,1.6,5.138,3.556,5.138a3.14,3.14,0,0,0,3.08-3.374c0-2.184-1.162-3.248-2.9-3.248a3.1,3.1,0,0,0-2.24,1.19c.07-2.94,1.162-3.934,2.478-3.934a2.214,2.214,0,0,1,1.61.77ZM189.168,0h1.456V-5.1c0-.924-.126-2.254-.2-3.192h.056l.812,2.38L193.1-.994h1.008L195.9-5.908l.826-2.38h.056c-.084.938-.21,2.268-.21,3.192V0h1.512V-10.3H196.21L194.348-5.1c-.238.686-.434,1.386-.672,2.086h-.07c-.238-.7-.448-1.4-.686-2.086L191.03-10.3h-1.862Zm13.16,0h1.624V-8.946h3.038V-10.3H199.3v1.358h3.024Zm9.66.182c2.282,0,3.822-1.246,3.822-4.606V-10.3h-1.568v5.992c0,2.324-.952,3.08-2.254,3.08s-2.212-.756-2.212-3.08V-10.3h-1.624v5.88C208.152-1.064,209.706.182,211.988.182Zm6.468-4.2,2.03-3.108c.294-.532.574-1.064.826-1.582h.056c-.028.56-.084,1.428-.084,1.988v2.7Zm5.656,0H222.8V-10.3h-1.862l-4.1,6.454v1.078h4.452V0H222.8V-2.772h1.316ZM225.33,0h1.54V-4.858c0-1.12-.126-2.31-.21-3.374h.07l1.078,2.156L231.224,0h1.666V-10.3h-1.54v4.8c0,1.12.126,2.366.21,3.43h-.07l-1.078-2.184L227-10.3H225.33Zm9.716,0H237.8c3.08,0,4.886-1.848,4.886-5.194s-1.806-5.11-4.97-5.11h-2.674Zm1.624-1.33V-8.988h.938c2.212,0,3.4,1.218,3.4,3.794s-1.19,3.864-3.4,3.864ZM245.658,0h1.624V-3.906l3.108-6.4H248.7l-1.2,2.73c-.308.77-.644,1.484-.98,2.268h-.056c-.35-.784-.644-1.5-.966-2.268L244.3-10.3h-1.736l3.094,6.4Zm6.2,0h1.862l.938-3.794c.2-.728.336-1.442.49-2.24h.07c.168.8.308,1.5.49,2.226L256.69,0h1.932l1.988-7.7H259.1L258.1-3.528c-.168.742-.294,1.456-.448,2.184H257.6c-.182-.728-.336-1.442-.518-2.184L255.976-7.7h-1.5L253.4-3.528c-.182.728-.336,1.456-.5,2.184h-.056c-.14-.728-.266-1.442-.42-2.184L251.4-7.7h-1.624Zm9.926,0h1.54V-4.858c0-1.12-.126-2.31-.21-3.374h.07l1.078,2.156L267.68,0h1.666V-10.3h-1.54v4.8c0,1.12.126,2.366.21,3.43h-.07l-1.078-2.184L263.452-10.3h-1.666Zm8.876,0h5.95V-1.288h-3.92l3.794-5.558V-7.7h-5.4v1.288h3.374L270.662-.868Zm7.14,0h1.624V-10.3H277.8Zm4.312-4.018,2.03-3.108c.294-.532.574-1.064.826-1.582h.056c-.028.56-.084,1.428-.084,1.988v2.7Zm5.656,0h-1.316V-10.3h-1.862l-4.1,6.454v1.078h4.452V0h1.512V-2.772h1.316ZM288.988,0h1.456V-5.1c0-.924-.126-2.254-.2-3.192h.056l.812,2.38,1.806,4.914h1.008l1.792-4.914.826-2.38h.056c-.084.938-.21,2.268-.21,3.192V0h1.512V-10.3H296.03L294.168-5.1c-.238.686-.434,1.386-.672,2.086h-.07c-.238-.7-.448-1.4-.686-2.086L290.85-10.3h-1.862ZM302.54,3.458c2.464,0,4.032-1.2,4.032-2.688,0-1.316-.952-1.876-2.772-1.876h-1.414c-.98,0-1.288-.294-1.288-.756a1.021,1.021,0,0,1,.42-.812,2.677,2.677,0,0,0,1.078.238,2.631,2.631,0,0,0,2.884-2.646,2.082,2.082,0,0,0-.5-1.414h1.47V-7.7h-2.73a3.211,3.211,0,0,0-1.12-.2,2.777,2.777,0,0,0-2.982,2.772,2.635,2.635,0,0,0,1.008,2.044v.056a1.9,1.9,0,0,0-.854,1.428,1.416,1.416,0,0,0,.7,1.274v.07a2.034,2.034,0,0,0-1.12,1.68C299.348,2.772,300.692,3.458,302.54,3.458Zm.056-6.93a1.5,1.5,0,0,1-1.456-1.652A1.466,1.466,0,0,1,302.6-6.762a1.474,1.474,0,0,1,1.456,1.638A1.5,1.5,0,0,1,302.6-3.472Zm.182,5.866c-1.274,0-2.058-.448-2.058-1.2a1.385,1.385,0,0,1,.658-1.12,4.9,4.9,0,0,0,1.036.112h1.162c.938,0,1.442.2,1.442.84C305.018,1.736,304.122,2.394,302.778,2.394Z" transform="translate(344 422.857)"/>
        </g>
      </g>
    </g>
  </g>
</svg>
